G04 Layer_Color=8388736*
%FSLAX25Y25*%
%MOIN*%
G70*
G01*
G75*
%ADD34R,0.05918X0.04737*%
%ADD35R,0.04737X0.05918*%
%ADD36R,0.06312X0.06312*%
%ADD37R,0.05800X0.03792*%
%ADD38O,0.03162X0.08674*%
%ADD39O,0.02572X0.09068*%
%ADD40C,0.25800*%
%ADD41C,0.06706*%
%ADD42R,0.06706X0.06706*%
%ADD43C,0.06500*%
%ADD44C,0.04800*%
%ADD45C,0.03800*%
D34*
X413500Y592650D02*
D03*
Y586350D02*
D03*
X405500Y586350D02*
D03*
Y592650D02*
D03*
X389500Y586350D02*
D03*
Y592650D02*
D03*
X397500Y592650D02*
D03*
Y586350D02*
D03*
X430000Y592650D02*
D03*
Y586350D02*
D03*
X421833Y586350D02*
D03*
Y592650D02*
D03*
X526500Y578150D02*
D03*
Y571850D02*
D03*
X533000Y578150D02*
D03*
Y571850D02*
D03*
X539500Y578150D02*
D03*
Y571850D02*
D03*
D35*
X220850Y550000D02*
D03*
X227150D02*
D03*
X279150D02*
D03*
X272850D02*
D03*
X279150Y490000D02*
D03*
X272850D02*
D03*
X279150Y500000D02*
D03*
X272850D02*
D03*
X379150Y400000D02*
D03*
X372850D02*
D03*
X379150Y450000D02*
D03*
X372850D02*
D03*
X470850Y500000D02*
D03*
X477150D02*
D03*
X379150D02*
D03*
X372850D02*
D03*
X379150Y550000D02*
D03*
X372850D02*
D03*
X220850Y400000D02*
D03*
X227150D02*
D03*
X470850D02*
D03*
X477150D02*
D03*
Y392000D02*
D03*
X470850D02*
D03*
X477150Y508000D02*
D03*
X470850D02*
D03*
X477150Y492000D02*
D03*
X470850D02*
D03*
X477150Y534000D02*
D03*
X470850D02*
D03*
X477150Y542000D02*
D03*
X470850D02*
D03*
X477150Y434000D02*
D03*
X470850D02*
D03*
X477150Y450000D02*
D03*
X470850D02*
D03*
Y442000D02*
D03*
X477150D02*
D03*
Y384000D02*
D03*
X470850D02*
D03*
D36*
X308457Y608000D02*
D03*
X315543D02*
D03*
X416457Y504000D02*
D03*
X423543D02*
D03*
D37*
X510500Y613000D02*
D03*
Y608000D02*
D03*
Y603000D02*
D03*
Y598000D02*
D03*
Y593000D02*
D03*
X540500D02*
D03*
Y598000D02*
D03*
Y603000D02*
D03*
Y608000D02*
D03*
Y613000D02*
D03*
D38*
X423500Y554504D02*
D03*
X418500D02*
D03*
X413500D02*
D03*
X408500D02*
D03*
X403500D02*
D03*
X398500D02*
D03*
X393500D02*
D03*
X438500Y517496D02*
D03*
X433500D02*
D03*
X428500D02*
D03*
X423500D02*
D03*
X418500D02*
D03*
X413500D02*
D03*
X408500D02*
D03*
X403500D02*
D03*
X398500D02*
D03*
X393500D02*
D03*
X438500Y554504D02*
D03*
X433500D02*
D03*
X428500D02*
D03*
D39*
X271925Y572417D02*
D03*
X274484D02*
D03*
X277043D02*
D03*
X279602D02*
D03*
X282161D02*
D03*
X284720D02*
D03*
X287280D02*
D03*
X289839D02*
D03*
X292398D02*
D03*
X294957D02*
D03*
X297516D02*
D03*
X300075D02*
D03*
X271925Y599583D02*
D03*
X274484D02*
D03*
X277043D02*
D03*
X279602D02*
D03*
X282161D02*
D03*
X284720D02*
D03*
X287280D02*
D03*
X289839D02*
D03*
X292398D02*
D03*
X294957D02*
D03*
X297516D02*
D03*
X300075D02*
D03*
D40*
X400000Y318000D02*
D03*
X532000D02*
D03*
Y632000D02*
D03*
X400000D02*
D03*
X218000D02*
D03*
Y318000D02*
D03*
D41*
X370000Y600000D02*
D03*
Y590000D02*
D03*
X360000Y600000D02*
D03*
Y590000D02*
D03*
X350000Y600000D02*
D03*
X456000Y632000D02*
D03*
X466000D02*
D03*
X476000D02*
D03*
X486000D02*
D03*
D42*
X350000Y590000D02*
D03*
X446000Y632000D02*
D03*
D43*
X274189Y624063D02*
D03*
X266315D02*
D03*
X305685D02*
D03*
Y631937D02*
D03*
X297811Y624063D02*
D03*
Y631937D02*
D03*
X289937Y624063D02*
D03*
Y631937D02*
D03*
X282063Y624063D02*
D03*
X274189Y631937D02*
D03*
X282063D02*
D03*
X266315D02*
D03*
D44*
X250000Y550000D02*
D03*
X240000D02*
D03*
X260000D02*
D03*
X250000Y500000D02*
D03*
X240000D02*
D03*
X260000D02*
D03*
X350000Y400000D02*
D03*
X340000D02*
D03*
X360000D02*
D03*
X350000Y450000D02*
D03*
X340000D02*
D03*
X360000D02*
D03*
X500000Y550000D02*
D03*
X490000D02*
D03*
X510000D02*
D03*
X350000Y500000D02*
D03*
X340000D02*
D03*
X360000D02*
D03*
X500000D02*
D03*
X490000D02*
D03*
X510000D02*
D03*
X350000Y550000D02*
D03*
X340000D02*
D03*
X360000D02*
D03*
X500000Y450000D02*
D03*
X490000D02*
D03*
X510000D02*
D03*
X250000Y400000D02*
D03*
X240000D02*
D03*
X260000D02*
D03*
X500000D02*
D03*
X490000D02*
D03*
X510000D02*
D03*
D45*
X326000Y550500D02*
D03*
X301000D02*
D03*
X481500Y521000D02*
D03*
X478500Y458000D02*
D03*
X470850Y406350D02*
D03*
X418500Y562500D02*
D03*
X413500D02*
D03*
X419100Y546500D02*
D03*
X415500D02*
D03*
X413000Y526000D02*
D03*
X418500D02*
D03*
X460500Y503500D02*
D03*
X393500Y497000D02*
D03*
X460500Y508000D02*
D03*
X413500Y606333D02*
D03*
X397500D02*
D03*
X430000D02*
D03*
X389500D02*
D03*
X225900Y530400D02*
D03*
X277500D02*
D03*
X281500Y585500D02*
D03*
X290500Y589000D02*
D03*
X285000Y612000D02*
D03*
X261500Y603000D02*
D03*
X398500Y492000D02*
D03*
X449000Y519500D02*
D03*
X446454Y522046D02*
D03*
X405500Y606333D02*
D03*
X421833D02*
D03*
X292500Y550000D02*
D03*
X285000D02*
D03*
X290000Y530500D02*
D03*
X444500Y545400D02*
D03*
Y541800D02*
D03*
Y549000D02*
D03*
X472000Y558900D02*
D03*
Y555300D02*
D03*
Y562500D02*
D03*
X360500Y580000D02*
D03*
X520850Y571850D02*
D03*
M02*
