G04 Layer_Physical_Order=2*
G04 Layer_Color=16711680*
%FSLAX25Y25*%
%MOIN*%
G70*
G01*
G75*
%ADD16C,0.00800*%
%ADD17C,0.01000*%
%ADD18C,0.02000*%
%ADD19C,0.00600*%
%ADD23C,0.05906*%
%ADD24R,0.05906X0.05906*%
%ADD26C,0.04000*%
%ADD27C,0.03000*%
%ADD28C,0.06000*%
G36*
X543878Y306121D02*
X206121D01*
Y643878D01*
X543878D01*
Y306121D01*
D02*
G37*
%LPC*%
G36*
X532500Y638985D02*
Y632500D01*
X538985D01*
X538899Y633372D01*
X538498Y634692D01*
X537848Y635908D01*
X536974Y636974D01*
X535908Y637848D01*
X534692Y638498D01*
X533372Y638899D01*
X532500Y638985D01*
D02*
G37*
G36*
X531500D02*
X530628Y638899D01*
X529308Y638498D01*
X528092Y637848D01*
X527026Y636974D01*
X526152Y635908D01*
X525502Y634692D01*
X525101Y633372D01*
X525015Y632500D01*
X531500D01*
Y638985D01*
D02*
G37*
G36*
X449953Y635953D02*
X446500D01*
Y632500D01*
X449953D01*
Y635953D01*
D02*
G37*
G36*
X445500D02*
X442047D01*
Y632500D01*
X445500D01*
Y635953D01*
D02*
G37*
G36*
X400500Y638985D02*
Y632500D01*
X406985D01*
X406899Y633372D01*
X406498Y634692D01*
X405849Y635908D01*
X404974Y636974D01*
X403908Y637848D01*
X402692Y638498D01*
X401372Y638899D01*
X400500Y638985D01*
D02*
G37*
G36*
X399500D02*
X398628Y638899D01*
X397308Y638498D01*
X396092Y637848D01*
X395026Y636974D01*
X394151Y635908D01*
X393501Y634692D01*
X393101Y633372D01*
X393015Y632500D01*
X399500D01*
Y638985D01*
D02*
G37*
G36*
X218500D02*
Y632500D01*
X224985D01*
X224899Y633372D01*
X224499Y634692D01*
X223849Y635908D01*
X222974Y636974D01*
X221908Y637848D01*
X220692Y638498D01*
X219372Y638899D01*
X218500Y638985D01*
D02*
G37*
G36*
X217500D02*
X216628Y638899D01*
X215308Y638498D01*
X214092Y637848D01*
X213026Y636974D01*
X212152Y635908D01*
X211502Y634692D01*
X211101Y633372D01*
X211015Y632500D01*
X217500D01*
Y638985D01*
D02*
G37*
G36*
X265815Y635906D02*
X265271Y635834D01*
X264298Y635431D01*
X263462Y634790D01*
X262821Y633954D01*
X262418Y632981D01*
X262346Y632437D01*
X265815D01*
Y635906D01*
D02*
G37*
G36*
X486000Y635583D02*
X485073Y635461D01*
X484208Y635103D01*
X483466Y634534D01*
X482897Y633792D01*
X482539Y632928D01*
X482417Y632000D01*
X482539Y631073D01*
X482897Y630208D01*
X483466Y629466D01*
X484208Y628897D01*
X485073Y628539D01*
X486000Y628417D01*
X486928Y628539D01*
X487792Y628897D01*
X488534Y629466D01*
X489103Y630208D01*
X489461Y631073D01*
X489583Y632000D01*
X489461Y632928D01*
X489103Y633792D01*
X488534Y634534D01*
X487792Y635103D01*
X486928Y635461D01*
X486000Y635583D01*
D02*
G37*
G36*
X476000D02*
X475072Y635461D01*
X474208Y635103D01*
X473466Y634534D01*
X472897Y633792D01*
X472539Y632928D01*
X472417Y632000D01*
X472539Y631073D01*
X472897Y630208D01*
X473466Y629466D01*
X474208Y628897D01*
X475072Y628539D01*
X476000Y628417D01*
X476928Y628539D01*
X477792Y628897D01*
X478534Y629466D01*
X479103Y630208D01*
X479461Y631073D01*
X479583Y632000D01*
X479461Y632928D01*
X479103Y633792D01*
X478534Y634534D01*
X477792Y635103D01*
X476928Y635461D01*
X476000Y635583D01*
D02*
G37*
G36*
X466000D02*
X465072Y635461D01*
X464208Y635103D01*
X463466Y634534D01*
X462897Y633792D01*
X462539Y632928D01*
X462417Y632000D01*
X462539Y631073D01*
X462897Y630208D01*
X463466Y629466D01*
X464208Y628897D01*
X465072Y628539D01*
X466000Y628417D01*
X466927Y628539D01*
X467792Y628897D01*
X468534Y629466D01*
X469103Y630208D01*
X469461Y631073D01*
X469583Y632000D01*
X469461Y632928D01*
X469103Y633792D01*
X468534Y634534D01*
X467792Y635103D01*
X466927Y635461D01*
X466000Y635583D01*
D02*
G37*
G36*
X456000D02*
X455072Y635461D01*
X454208Y635103D01*
X453466Y634534D01*
X452897Y633792D01*
X452539Y632928D01*
X452417Y632000D01*
X452539Y631073D01*
X452897Y630208D01*
X453466Y629466D01*
X454208Y628897D01*
X455072Y628539D01*
X456000Y628417D01*
X456927Y628539D01*
X457792Y628897D01*
X458534Y629466D01*
X459103Y630208D01*
X459461Y631073D01*
X459583Y632000D01*
X459461Y632928D01*
X459103Y633792D01*
X458534Y634534D01*
X457792Y635103D01*
X456927Y635461D01*
X456000Y635583D01*
D02*
G37*
G36*
X297811Y635568D02*
X296871Y635444D01*
X295995Y635082D01*
X295244Y634505D01*
X294666Y633752D01*
X294304Y632877D01*
X294180Y631937D01*
X294304Y630997D01*
X294666Y630122D01*
X295244Y629369D01*
X295995Y628792D01*
X296871Y628430D01*
X297811Y628306D01*
X298751Y628430D01*
X299627Y628792D01*
X300379Y629369D01*
X300956Y630122D01*
X301318Y630997D01*
X301442Y631937D01*
X301318Y632877D01*
X300956Y633752D01*
X300379Y634505D01*
X299627Y635082D01*
X298751Y635444D01*
X297811Y635568D01*
D02*
G37*
G36*
X289937D02*
X288997Y635444D01*
X288121Y635082D01*
X287369Y634505D01*
X286792Y633752D01*
X286430Y632877D01*
X286306Y631937D01*
X286430Y630997D01*
X286792Y630122D01*
X287369Y629369D01*
X288121Y628792D01*
X288997Y628430D01*
X289937Y628306D01*
X290877Y628430D01*
X291753Y628792D01*
X292505Y629369D01*
X293081Y630122D01*
X293444Y630997D01*
X293568Y631937D01*
X293444Y632877D01*
X293081Y633752D01*
X292505Y634505D01*
X291753Y635082D01*
X290877Y635444D01*
X289937Y635568D01*
D02*
G37*
G36*
X266815Y635906D02*
Y631937D01*
X266315D01*
Y631437D01*
X262346D01*
X262418Y630893D01*
X262821Y629920D01*
X263462Y629084D01*
X264298Y628443D01*
X265267Y628041D01*
X265276Y628018D01*
X265313Y627848D01*
X265286Y627534D01*
X264499Y627208D01*
X263747Y626631D01*
X263170Y625878D01*
X262808Y625003D01*
X262684Y624063D01*
X262808Y623123D01*
X263170Y622248D01*
X263747Y621495D01*
X264499Y620918D01*
X265375Y620556D01*
X266315Y620432D01*
X267255Y620556D01*
X268130Y620918D01*
X268871Y621487D01*
X269057Y621461D01*
X269371Y621355D01*
Y591903D01*
X269441Y591552D01*
X269640Y591254D01*
X279443Y581451D01*
X279741Y581252D01*
X280092Y581182D01*
X282908D01*
X283260Y581252D01*
X283557Y581451D01*
X285549Y583443D01*
X285748Y583741D01*
X285818Y584092D01*
Y585823D01*
X288077Y588082D01*
X288587D01*
X288986Y587486D01*
X289681Y587022D01*
X290500Y586859D01*
X291319Y587022D01*
X292014Y587486D01*
X292478Y588181D01*
X292641Y589000D01*
X292478Y589819D01*
X292014Y590514D01*
X291319Y590978D01*
X290500Y591141D01*
X289681Y590978D01*
X288986Y590514D01*
X288587Y589918D01*
X287697D01*
X287346Y589848D01*
X287048Y589649D01*
X284251Y586852D01*
X284052Y586554D01*
X283982Y586203D01*
X283495Y586234D01*
X283478Y586319D01*
X283014Y587014D01*
X282319Y587478D01*
X281500Y587641D01*
X280797Y587501D01*
X275107Y593191D01*
Y620553D01*
X275129Y620556D01*
X276005Y620918D01*
X276745Y621487D01*
X276931Y621461D01*
X277245Y621355D01*
Y618837D01*
X277315Y618486D01*
X277514Y618188D01*
X282999Y612704D01*
X282859Y612000D01*
X283022Y611181D01*
X283486Y610486D01*
X284181Y610022D01*
X285000Y609859D01*
X285819Y610022D01*
X286514Y610486D01*
X286978Y611181D01*
X287141Y612000D01*
X286978Y612819D01*
X286514Y613514D01*
X285819Y613978D01*
X285000Y614141D01*
X284296Y614001D01*
X279081Y619217D01*
Y621290D01*
X279581Y621430D01*
X280247Y620918D01*
X281123Y620556D01*
X282063Y620432D01*
X283003Y620556D01*
X283878Y620918D01*
X284630Y621495D01*
X285208Y622248D01*
X285570Y623123D01*
X285694Y624063D01*
X285570Y625003D01*
X285208Y625878D01*
X284630Y626631D01*
X283878Y627208D01*
X283003Y627570D01*
X282063Y627694D01*
X281123Y627570D01*
X280247Y627208D01*
X279581Y626696D01*
X279081Y626836D01*
Y627583D01*
X280278Y628780D01*
X281123Y628430D01*
X282063Y628306D01*
X283003Y628430D01*
X283878Y628792D01*
X284630Y629369D01*
X285208Y630122D01*
X285570Y630997D01*
X285694Y631937D01*
X285570Y632877D01*
X285208Y633752D01*
X284630Y634505D01*
X283878Y635082D01*
X283003Y635444D01*
X282063Y635568D01*
X281123Y635444D01*
X280247Y635082D01*
X279495Y634505D01*
X278918Y633752D01*
X278556Y632877D01*
X278432Y631937D01*
X278556Y630997D01*
X278918Y630122D01*
X278964Y630062D01*
X277514Y628612D01*
X277315Y628314D01*
X277245Y627963D01*
Y626771D01*
X276931Y626665D01*
X276745Y626639D01*
X276005Y627208D01*
X275129Y627570D01*
X274189Y627694D01*
X273249Y627570D01*
X272373Y627208D01*
X271707Y626696D01*
X271207Y626836D01*
Y627583D01*
X272404Y628780D01*
X273249Y628430D01*
X274189Y628306D01*
X275129Y628430D01*
X276005Y628792D01*
X276757Y629369D01*
X277333Y630122D01*
X277696Y630997D01*
X277820Y631937D01*
X277696Y632877D01*
X277333Y633752D01*
X276757Y634505D01*
X276005Y635082D01*
X275129Y635444D01*
X274189Y635568D01*
X273249Y635444D01*
X272373Y635082D01*
X271621Y634505D01*
X271044Y633752D01*
X270718Y632966D01*
X270403Y632939D01*
X270234Y632976D01*
X270211Y632985D01*
X269809Y633954D01*
X269168Y634790D01*
X268332Y635431D01*
X267359Y635834D01*
X266815Y635906D01*
D02*
G37*
G36*
X449953Y631500D02*
X446500D01*
Y628047D01*
X449953D01*
Y631500D01*
D02*
G37*
G36*
X445500D02*
X442047D01*
Y628047D01*
X445500D01*
Y631500D01*
D02*
G37*
G36*
X305685Y635568D02*
X304745Y635444D01*
X303870Y635082D01*
X303117Y634505D01*
X302540Y633752D01*
X302178Y632877D01*
X302054Y631937D01*
X302178Y630997D01*
X302540Y630122D01*
X303117Y629369D01*
X303870Y628792D01*
X304657Y628466D01*
X304683Y628152D01*
X304646Y627982D01*
X304637Y627959D01*
X303668Y627557D01*
X302832Y626916D01*
X302191Y626080D01*
X301789Y625111D01*
X301766Y625102D01*
X301596Y625065D01*
X301282Y625092D01*
X300956Y625878D01*
X300379Y626631D01*
X299627Y627208D01*
X298751Y627570D01*
X297811Y627694D01*
X296871Y627570D01*
X295995Y627208D01*
X295244Y626631D01*
X294666Y625878D01*
X294304Y625003D01*
X294180Y624063D01*
X294304Y623123D01*
X294666Y622248D01*
X295244Y621495D01*
X295995Y620918D01*
X296871Y620556D01*
X297811Y620432D01*
X298751Y620556D01*
X299627Y620918D01*
X300379Y621495D01*
X300956Y622248D01*
X301282Y623034D01*
X301596Y623061D01*
X301766Y623024D01*
X301789Y623015D01*
X302191Y622046D01*
X302832Y621210D01*
X303668Y620569D01*
X304641Y620166D01*
X305185Y620094D01*
Y624063D01*
X305685D01*
Y624563D01*
X309654D01*
X309582Y625107D01*
X309179Y626080D01*
X308538Y626916D01*
X307702Y627557D01*
X306733Y627959D01*
X306724Y627982D01*
X306687Y628152D01*
X306714Y628466D01*
X307501Y628792D01*
X308253Y629369D01*
X308830Y630122D01*
X309192Y630997D01*
X309316Y631937D01*
X309192Y632877D01*
X308830Y633752D01*
X308253Y634505D01*
X307501Y635082D01*
X306625Y635444D01*
X305685Y635568D01*
D02*
G37*
G36*
X538985Y631500D02*
X532500D01*
Y625015D01*
X533372Y625101D01*
X534692Y625502D01*
X535908Y626152D01*
X536974Y627026D01*
X537848Y628092D01*
X538498Y629308D01*
X538899Y630628D01*
X538985Y631500D01*
D02*
G37*
G36*
X531500D02*
X525015D01*
X525101Y630628D01*
X525502Y629308D01*
X526152Y628092D01*
X527026Y627026D01*
X528092Y626152D01*
X529308Y625502D01*
X530628Y625101D01*
X531500Y625015D01*
Y631500D01*
D02*
G37*
G36*
X406985D02*
X400500D01*
Y625015D01*
X401372Y625101D01*
X402692Y625502D01*
X403908Y626152D01*
X404974Y627026D01*
X405849Y628092D01*
X406498Y629308D01*
X406899Y630628D01*
X406985Y631500D01*
D02*
G37*
G36*
X399500D02*
X393015D01*
X393101Y630628D01*
X393501Y629308D01*
X394151Y628092D01*
X395026Y627026D01*
X396092Y626152D01*
X397308Y625502D01*
X398628Y625101D01*
X399500Y625015D01*
Y631500D01*
D02*
G37*
G36*
X224985D02*
X218500D01*
Y625015D01*
X219372Y625101D01*
X220692Y625502D01*
X221908Y626152D01*
X222974Y627026D01*
X223849Y628092D01*
X224499Y629308D01*
X224899Y630628D01*
X224985Y631500D01*
D02*
G37*
G36*
X217500D02*
X211015D01*
X211101Y630628D01*
X211502Y629308D01*
X212152Y628092D01*
X213026Y627026D01*
X214092Y626152D01*
X215308Y625502D01*
X216628Y625101D01*
X217500Y625015D01*
Y631500D01*
D02*
G37*
G36*
X289937Y627694D02*
X288997Y627570D01*
X288121Y627208D01*
X287369Y626631D01*
X286792Y625878D01*
X286430Y625003D01*
X286306Y624063D01*
X286430Y623123D01*
X286792Y622248D01*
X287369Y621495D01*
X288121Y620918D01*
X288997Y620556D01*
X289937Y620432D01*
X290877Y620556D01*
X291753Y620918D01*
X292505Y621495D01*
X293081Y622248D01*
X293444Y623123D01*
X293568Y624063D01*
X293444Y625003D01*
X293081Y625878D01*
X292505Y626631D01*
X291753Y627208D01*
X290877Y627570D01*
X289937Y627694D01*
D02*
G37*
G36*
X309654Y623563D02*
X306185D01*
Y620094D01*
X306729Y620166D01*
X307702Y620569D01*
X308538Y621210D01*
X309179Y622046D01*
X309582Y623019D01*
X309654Y623563D01*
D02*
G37*
G36*
X422333Y608783D02*
Y606833D01*
X424283D01*
X424188Y607309D01*
X423636Y608136D01*
X422809Y608688D01*
X422333Y608783D01*
D02*
G37*
G36*
X421333D02*
X420858Y608688D01*
X420031Y608136D01*
X419478Y607309D01*
X419384Y606833D01*
X421333D01*
Y608783D01*
D02*
G37*
G36*
X406000D02*
Y606833D01*
X407949D01*
X407855Y607309D01*
X407302Y608136D01*
X406475Y608688D01*
X406000Y608783D01*
D02*
G37*
G36*
X405000D02*
X404525Y608688D01*
X403698Y608136D01*
X403145Y607309D01*
X403051Y606833D01*
X405000D01*
Y608783D01*
D02*
G37*
G36*
X390000D02*
Y606833D01*
X391950D01*
X391855Y607309D01*
X391302Y608136D01*
X390476Y608688D01*
X390000Y608783D01*
D02*
G37*
G36*
X389000D02*
X388525Y608688D01*
X387698Y608136D01*
X387145Y607309D01*
X387051Y606833D01*
X389000D01*
Y608783D01*
D02*
G37*
G36*
X424283Y605833D02*
X422333D01*
Y603884D01*
X422809Y603978D01*
X423636Y604531D01*
X424188Y605358D01*
X424283Y605833D01*
D02*
G37*
G36*
X421333D02*
X419384D01*
X419478Y605358D01*
X420031Y604531D01*
X420858Y603978D01*
X421333Y603884D01*
Y605833D01*
D02*
G37*
G36*
X407949D02*
X406000D01*
Y603884D01*
X406475Y603978D01*
X407302Y604531D01*
X407855Y605358D01*
X407949Y605833D01*
D02*
G37*
G36*
X405000D02*
X403051D01*
X403145Y605358D01*
X403698Y604531D01*
X404525Y603978D01*
X405000Y603884D01*
Y605833D01*
D02*
G37*
G36*
X391950D02*
X390000D01*
Y603884D01*
X390476Y603978D01*
X391302Y604531D01*
X391855Y605358D01*
X391950Y605833D01*
D02*
G37*
G36*
X389000D02*
X387051D01*
X387145Y605358D01*
X387698Y604531D01*
X388525Y603978D01*
X389000Y603884D01*
Y605833D01*
D02*
G37*
G36*
X262000Y605449D02*
Y603500D01*
X263949D01*
X263855Y603975D01*
X263302Y604802D01*
X262475Y605355D01*
X262000Y605449D01*
D02*
G37*
G36*
X261000D02*
X260525Y605355D01*
X259698Y604802D01*
X259145Y603975D01*
X259050Y603500D01*
X261000D01*
Y605449D01*
D02*
G37*
G36*
X263949Y602500D02*
X262000D01*
Y600551D01*
X262475Y600645D01*
X263302Y601198D01*
X263855Y602025D01*
X263949Y602500D01*
D02*
G37*
G36*
X261000D02*
X259050D01*
X259145Y602025D01*
X259698Y601198D01*
X260525Y600645D01*
X261000Y600551D01*
Y602500D01*
D02*
G37*
G36*
X370500Y603921D02*
Y600500D01*
X373921D01*
X373851Y601032D01*
X373453Y601993D01*
X372819Y602819D01*
X371993Y603453D01*
X371032Y603851D01*
X370500Y603921D01*
D02*
G37*
G36*
X369500D02*
X368968Y603851D01*
X368007Y603453D01*
X367181Y602819D01*
X366547Y601993D01*
X366149Y601032D01*
X366079Y600500D01*
X369500D01*
Y603921D01*
D02*
G37*
G36*
X360000Y603583D02*
X359073Y603461D01*
X358208Y603103D01*
X357466Y602534D01*
X356897Y601792D01*
X356539Y600927D01*
X356417Y600000D01*
X356539Y599073D01*
X356897Y598208D01*
X357466Y597466D01*
X358208Y596897D01*
X359073Y596539D01*
X360000Y596417D01*
X360927Y596539D01*
X361792Y596897D01*
X362534Y597466D01*
X363103Y598208D01*
X363461Y599073D01*
X363583Y600000D01*
X363461Y600927D01*
X363103Y601792D01*
X362534Y602534D01*
X361792Y603103D01*
X360927Y603461D01*
X360000Y603583D01*
D02*
G37*
G36*
X373921Y599500D02*
X370500D01*
Y596079D01*
X371032Y596149D01*
X371993Y596547D01*
X372819Y597181D01*
X373453Y598007D01*
X373851Y598968D01*
X373921Y599500D01*
D02*
G37*
G36*
X369500D02*
X366079D01*
X366149Y598968D01*
X366547Y598007D01*
X367181Y597181D01*
X368007Y596547D01*
X368968Y596149D01*
X369500Y596079D01*
Y599500D01*
D02*
G37*
G36*
X430000Y608474D02*
X429181Y608312D01*
X428486Y607847D01*
X428022Y607153D01*
X427859Y606333D01*
X428022Y605514D01*
X428369Y604995D01*
Y601000D01*
X428493Y600376D01*
X428847Y599847D01*
X438800Y589893D01*
X438608Y589431D01*
X427376D01*
X415131Y601676D01*
Y604995D01*
X415478Y605514D01*
X415641Y606333D01*
X415478Y607153D01*
X415014Y607847D01*
X414319Y608312D01*
X413500Y608474D01*
X412681Y608312D01*
X411986Y607847D01*
X411522Y607153D01*
X411359Y606333D01*
X411522Y605514D01*
X411869Y604995D01*
Y601000D01*
X411993Y600376D01*
X412347Y599847D01*
X424900Y587293D01*
X424708Y586831D01*
X413976D01*
X399131Y601676D01*
Y604995D01*
X399478Y605514D01*
X399641Y606333D01*
X399478Y607153D01*
X399014Y607847D01*
X398319Y608312D01*
X397500Y608474D01*
X396681Y608312D01*
X395986Y607847D01*
X395522Y607153D01*
X395359Y606333D01*
X395522Y605514D01*
X395869Y604995D01*
Y601000D01*
X395993Y600376D01*
X396346Y599847D01*
X412147Y584047D01*
X412676Y583693D01*
X413300Y583569D01*
X459324D01*
X474369Y568524D01*
Y563635D01*
X473869Y563483D01*
X473514Y564014D01*
X472819Y564478D01*
X472000Y564641D01*
X471181Y564478D01*
X470486Y564014D01*
X470022Y563319D01*
X469859Y562500D01*
X469999Y561797D01*
X469620Y561418D01*
X456000D01*
X455649Y561348D01*
X455351Y561149D01*
X445203Y551001D01*
X444500Y551141D01*
X443681Y550978D01*
X442986Y550514D01*
X442522Y549819D01*
X442359Y549000D01*
X442522Y548181D01*
X442972Y547506D01*
X443040Y547374D01*
Y547026D01*
X442972Y546894D01*
X442522Y546219D01*
X442359Y545400D01*
X442522Y544581D01*
X442972Y543906D01*
X443040Y543774D01*
Y543426D01*
X442972Y543294D01*
X442522Y542619D01*
X442359Y541800D01*
X442522Y540981D01*
X442986Y540286D01*
X443681Y539822D01*
X444500Y539659D01*
X445319Y539822D01*
X446014Y540286D01*
X446478Y540981D01*
X446641Y541800D01*
X446501Y542503D01*
X460380Y556382D01*
X469620D01*
X469999Y556004D01*
X469859Y555300D01*
X470022Y554481D01*
X470486Y553786D01*
X471181Y553322D01*
X472000Y553159D01*
X472819Y553322D01*
X473514Y553786D01*
X473869Y554317D01*
X474369Y554165D01*
Y524099D01*
X474293Y523985D01*
X474169Y523361D01*
Y460321D01*
X473893Y459908D01*
X473769Y459284D01*
Y456716D01*
X473893Y456092D01*
X474247Y455562D01*
X474369Y455440D01*
Y412176D01*
X470643Y408450D01*
X470031Y408329D01*
X469336Y407864D01*
X468872Y407170D01*
X468709Y406350D01*
X468872Y405531D01*
X469336Y404836D01*
X470031Y404372D01*
X470850Y404209D01*
X471670Y404372D01*
X472364Y404836D01*
X472829Y405531D01*
X472950Y406143D01*
X477153Y410347D01*
X477507Y410876D01*
X477631Y411500D01*
Y455522D01*
X478131Y455932D01*
X478500Y455859D01*
X479319Y456022D01*
X480014Y456486D01*
X480478Y457181D01*
X480641Y458000D01*
X480478Y458819D01*
X480031Y459488D01*
Y518778D01*
X480066Y518831D01*
X480231Y518954D01*
X480572Y519095D01*
X480681Y519022D01*
X481500Y518859D01*
X482319Y519022D01*
X483014Y519486D01*
X483478Y520181D01*
X483641Y521000D01*
X483478Y521819D01*
X483031Y522488D01*
Y565778D01*
X483107Y565892D01*
X483231Y566516D01*
X483107Y567140D01*
X483031Y567254D01*
Y568746D01*
X483107Y568860D01*
X483231Y569484D01*
Y570954D01*
X483107Y571578D01*
X482754Y572107D01*
X463307Y591553D01*
X462778Y591907D01*
X462154Y592031D01*
X441276D01*
X431631Y601676D01*
Y604995D01*
X431978Y605514D01*
X432141Y606333D01*
X431978Y607153D01*
X431514Y607847D01*
X430819Y608312D01*
X430000Y608474D01*
D02*
G37*
G36*
X370000Y593583D02*
X369073Y593461D01*
X368208Y593103D01*
X367466Y592534D01*
X366897Y591792D01*
X366539Y590928D01*
X366417Y590000D01*
X366539Y589073D01*
X366897Y588208D01*
X367466Y587466D01*
X368208Y586897D01*
X369073Y586539D01*
X370000Y586417D01*
X370927Y586539D01*
X371792Y586897D01*
X372534Y587466D01*
X373103Y588208D01*
X373461Y589073D01*
X373583Y590000D01*
X373461Y590928D01*
X373103Y591792D01*
X372534Y592534D01*
X371792Y593103D01*
X370927Y593461D01*
X370000Y593583D01*
D02*
G37*
G36*
X350000Y603583D02*
X349073Y603461D01*
X348208Y603103D01*
X347466Y602534D01*
X346897Y601792D01*
X346539Y600927D01*
X346417Y600000D01*
X346539Y599073D01*
X346897Y598208D01*
X347466Y597466D01*
X348208Y596897D01*
X349073Y596539D01*
X350000Y596417D01*
X350337Y596461D01*
X352746Y594053D01*
X352539Y593553D01*
X346447D01*
Y586447D01*
X352921D01*
Y578447D01*
X353046Y577823D01*
X353399Y577294D01*
X359846Y570847D01*
X360376Y570493D01*
X361000Y570369D01*
X408324D01*
X413195Y565498D01*
X413030Y564956D01*
X412525Y564855D01*
X411698Y564302D01*
X411145Y563476D01*
X411051Y563000D01*
X413500D01*
Y562000D01*
X411051D01*
X411145Y561524D01*
X411698Y560698D01*
X412525Y560145D01*
X412683Y560114D01*
X412828Y559635D01*
X405847Y552654D01*
X405493Y552124D01*
X405369Y551500D01*
Y532000D01*
X405493Y531376D01*
X405847Y530847D01*
X410900Y525793D01*
X411022Y525181D01*
X411486Y524486D01*
X412181Y524022D01*
X413000Y523859D01*
X413819Y524022D01*
X414514Y524486D01*
X414978Y525181D01*
X415141Y526000D01*
X414978Y526819D01*
X414514Y527514D01*
X413819Y527978D01*
X413207Y528100D01*
X408631Y532676D01*
Y550824D01*
X418221Y560414D01*
X418500Y560359D01*
X419319Y560522D01*
X420014Y560986D01*
X420478Y561681D01*
X420641Y562500D01*
X420478Y563319D01*
X420014Y564014D01*
X419319Y564478D01*
X418707Y564600D01*
X410153Y573153D01*
X409624Y573507D01*
X409000Y573631D01*
X361676D01*
X356184Y579123D01*
Y588622D01*
X356684Y588722D01*
X356897Y588208D01*
X357466Y587466D01*
X358208Y586897D01*
X358878Y586619D01*
Y581353D01*
X358522Y580819D01*
X358359Y580000D01*
X358522Y579181D01*
X358986Y578486D01*
X359681Y578022D01*
X360500Y577859D01*
X361319Y578022D01*
X362014Y578486D01*
X362478Y579181D01*
X362641Y580000D01*
X362478Y580819D01*
X362014Y581514D01*
X361319Y581978D01*
X361122Y582018D01*
Y586619D01*
X361792Y586897D01*
X362534Y587466D01*
X363103Y588208D01*
X363461Y589073D01*
X363583Y590000D01*
X363461Y590928D01*
X363103Y591792D01*
X362534Y592534D01*
X361792Y593103D01*
X360927Y593461D01*
X360000Y593583D01*
X359073Y593461D01*
X358208Y593103D01*
X357466Y592534D01*
X356897Y591792D01*
X356684Y591279D01*
X356184Y591378D01*
Y594553D01*
X356060Y595177D01*
X355706Y595706D01*
X353133Y598280D01*
X353461Y599073D01*
X353583Y600000D01*
X353461Y600927D01*
X353103Y601792D01*
X352534Y602534D01*
X351792Y603103D01*
X350927Y603461D01*
X350000Y603583D01*
D02*
G37*
G36*
X326000Y552641D02*
X325181Y552478D01*
X324486Y552014D01*
X324156Y551520D01*
X302844D01*
X302514Y552014D01*
X301819Y552478D01*
X301000Y552641D01*
X300181Y552478D01*
X299486Y552014D01*
X299022Y551319D01*
X298859Y550500D01*
X299022Y549681D01*
X299486Y548986D01*
X300181Y548522D01*
X301000Y548359D01*
X301819Y548522D01*
X302514Y548986D01*
X302844Y549480D01*
X324156D01*
X324486Y548986D01*
X325181Y548522D01*
X326000Y548359D01*
X326819Y548522D01*
X327514Y548986D01*
X327978Y549681D01*
X328141Y550500D01*
X327978Y551319D01*
X327514Y552014D01*
X326819Y552478D01*
X326000Y552641D01*
D02*
G37*
G36*
X292500Y552141D02*
X291681Y551978D01*
X290986Y551514D01*
X290656Y551020D01*
X286844D01*
X286514Y551514D01*
X285819Y551978D01*
X285000Y552141D01*
X284181Y551978D01*
X283486Y551514D01*
X283022Y550819D01*
X282859Y550000D01*
X283022Y549181D01*
X283486Y548486D01*
X284181Y548022D01*
X285000Y547859D01*
X285819Y548022D01*
X286514Y548486D01*
X286844Y548980D01*
X290656D01*
X290986Y548486D01*
X291681Y548022D01*
X292500Y547859D01*
X293319Y548022D01*
X294014Y548486D01*
X294478Y549181D01*
X294641Y550000D01*
X294478Y550819D01*
X294014Y551514D01*
X293319Y551978D01*
X292500Y552141D01*
D02*
G37*
G36*
X500500Y552960D02*
Y550500D01*
X502960D01*
X502923Y550783D01*
X502621Y551513D01*
X502140Y552140D01*
X501513Y552621D01*
X500783Y552923D01*
X500500Y552960D01*
D02*
G37*
G36*
X499500D02*
X499217Y552923D01*
X498487Y552621D01*
X497860Y552140D01*
X497379Y551513D01*
X497077Y550783D01*
X497040Y550500D01*
X499500D01*
Y552960D01*
D02*
G37*
G36*
X350500D02*
Y550500D01*
X352960D01*
X352923Y550783D01*
X352621Y551513D01*
X352140Y552140D01*
X351513Y552621D01*
X350783Y552923D01*
X350500Y552960D01*
D02*
G37*
G36*
X349500D02*
X349217Y552923D01*
X348487Y552621D01*
X347860Y552140D01*
X347379Y551513D01*
X347077Y550783D01*
X347040Y550500D01*
X349500D01*
Y552960D01*
D02*
G37*
G36*
X250500D02*
Y550500D01*
X252960D01*
X252923Y550783D01*
X252621Y551513D01*
X252140Y552140D01*
X251513Y552621D01*
X250783Y552923D01*
X250500Y552960D01*
D02*
G37*
G36*
X249500D02*
X249217Y552923D01*
X248487Y552621D01*
X247860Y552140D01*
X247379Y551513D01*
X247077Y550783D01*
X247040Y550500D01*
X249500D01*
Y552960D01*
D02*
G37*
G36*
X419100Y548641D02*
X418281Y548478D01*
X417586Y548014D01*
X417550Y547960D01*
X417050D01*
X417014Y548014D01*
X416319Y548478D01*
X415500Y548641D01*
X414681Y548478D01*
X413986Y548014D01*
X413522Y547319D01*
X413359Y546500D01*
X413522Y545681D01*
X413986Y544986D01*
X414681Y544522D01*
X415500Y544359D01*
X415778Y544130D01*
Y537837D01*
X415778Y537837D01*
X415864Y537408D01*
X416107Y537044D01*
X422044Y531107D01*
X422044Y531107D01*
X422408Y530864D01*
X422837Y530778D01*
X433873D01*
X442733Y521918D01*
Y520969D01*
X442733Y520969D01*
X442818Y520539D01*
X443061Y520176D01*
X444584Y518652D01*
X444584Y518652D01*
X444948Y518409D01*
X445377Y518324D01*
X445377Y518324D01*
X447260D01*
X447486Y517986D01*
X448181Y517522D01*
X449000Y517359D01*
X449819Y517522D01*
X450514Y517986D01*
X450978Y518681D01*
X451141Y519500D01*
X450978Y520319D01*
X450514Y521014D01*
X449819Y521478D01*
X449000Y521641D01*
X448937Y521629D01*
X448583Y521982D01*
X448596Y522046D01*
X448433Y522865D01*
X447968Y523560D01*
X447274Y524024D01*
X446454Y524187D01*
X445992Y524095D01*
X435793Y534293D01*
X435429Y534536D01*
X435000Y534622D01*
X435000Y534622D01*
X423965D01*
X419622Y538965D01*
Y544463D01*
X419919Y544522D01*
X420614Y544986D01*
X421078Y545681D01*
X421241Y546500D01*
X421078Y547319D01*
X420614Y548014D01*
X419919Y548478D01*
X419100Y548641D01*
D02*
G37*
G36*
X510000Y552622D02*
X509321Y552533D01*
X508689Y552271D01*
X508146Y551854D01*
X507729Y551311D01*
X507467Y550679D01*
X507378Y550000D01*
X507467Y549321D01*
X507729Y548689D01*
X508146Y548146D01*
X508689Y547729D01*
X509321Y547467D01*
X510000Y547378D01*
X510679Y547467D01*
X511311Y547729D01*
X511854Y548146D01*
X512271Y548689D01*
X512533Y549321D01*
X512622Y550000D01*
X512533Y550679D01*
X512271Y551311D01*
X511854Y551854D01*
X511311Y552271D01*
X510679Y552533D01*
X510000Y552622D01*
D02*
G37*
G36*
X490000D02*
X489321Y552533D01*
X488689Y552271D01*
X488146Y551854D01*
X487729Y551311D01*
X487467Y550679D01*
X487378Y550000D01*
X487467Y549321D01*
X487729Y548689D01*
X488146Y548146D01*
X488689Y547729D01*
X489321Y547467D01*
X490000Y547378D01*
X490679Y547467D01*
X491311Y547729D01*
X491854Y548146D01*
X492271Y548689D01*
X492533Y549321D01*
X492622Y550000D01*
X492533Y550679D01*
X492271Y551311D01*
X491854Y551854D01*
X491311Y552271D01*
X490679Y552533D01*
X490000Y552622D01*
D02*
G37*
G36*
X360000D02*
X359321Y552533D01*
X358689Y552271D01*
X358146Y551854D01*
X357729Y551311D01*
X357467Y550679D01*
X357378Y550000D01*
X357467Y549321D01*
X357729Y548689D01*
X358146Y548146D01*
X358689Y547729D01*
X359321Y547467D01*
X360000Y547378D01*
X360679Y547467D01*
X361311Y547729D01*
X361854Y548146D01*
X362271Y548689D01*
X362533Y549321D01*
X362622Y550000D01*
X362533Y550679D01*
X362271Y551311D01*
X361854Y551854D01*
X361311Y552271D01*
X360679Y552533D01*
X360000Y552622D01*
D02*
G37*
G36*
X340000D02*
X339321Y552533D01*
X338689Y552271D01*
X338146Y551854D01*
X337729Y551311D01*
X337467Y550679D01*
X337378Y550000D01*
X337467Y549321D01*
X337729Y548689D01*
X338146Y548146D01*
X338689Y547729D01*
X339321Y547467D01*
X340000Y547378D01*
X340679Y547467D01*
X341311Y547729D01*
X341854Y548146D01*
X342271Y548689D01*
X342533Y549321D01*
X342622Y550000D01*
X342533Y550679D01*
X342271Y551311D01*
X341854Y551854D01*
X341311Y552271D01*
X340679Y552533D01*
X340000Y552622D01*
D02*
G37*
G36*
X260000D02*
X259321Y552533D01*
X258689Y552271D01*
X258146Y551854D01*
X257729Y551311D01*
X257467Y550679D01*
X257378Y550000D01*
X257467Y549321D01*
X257729Y548689D01*
X258146Y548146D01*
X258689Y547729D01*
X259321Y547467D01*
X260000Y547378D01*
X260679Y547467D01*
X261311Y547729D01*
X261854Y548146D01*
X262271Y548689D01*
X262533Y549321D01*
X262622Y550000D01*
X262533Y550679D01*
X262271Y551311D01*
X261854Y551854D01*
X261311Y552271D01*
X260679Y552533D01*
X260000Y552622D01*
D02*
G37*
G36*
X240000D02*
X239321Y552533D01*
X238689Y552271D01*
X238146Y551854D01*
X237729Y551311D01*
X237467Y550679D01*
X237378Y550000D01*
X237467Y549321D01*
X237729Y548689D01*
X238146Y548146D01*
X238689Y547729D01*
X239321Y547467D01*
X240000Y547378D01*
X240679Y547467D01*
X241311Y547729D01*
X241854Y548146D01*
X242271Y548689D01*
X242533Y549321D01*
X242622Y550000D01*
X242533Y550679D01*
X242271Y551311D01*
X241854Y551854D01*
X241311Y552271D01*
X240679Y552533D01*
X240000Y552622D01*
D02*
G37*
G36*
X502960Y549500D02*
X500500D01*
Y547040D01*
X500783Y547077D01*
X501513Y547379D01*
X502140Y547860D01*
X502621Y548487D01*
X502923Y549217D01*
X502960Y549500D01*
D02*
G37*
G36*
X499500D02*
X497040D01*
X497077Y549217D01*
X497379Y548487D01*
X497860Y547860D01*
X498487Y547379D01*
X499217Y547077D01*
X499500Y547040D01*
Y549500D01*
D02*
G37*
G36*
X352960D02*
X350500D01*
Y547040D01*
X350783Y547077D01*
X351513Y547379D01*
X352140Y547860D01*
X352621Y548487D01*
X352923Y549217D01*
X352960Y549500D01*
D02*
G37*
G36*
X349500D02*
X347040D01*
X347077Y549217D01*
X347379Y548487D01*
X347860Y547860D01*
X348487Y547379D01*
X349217Y547077D01*
X349500Y547040D01*
Y549500D01*
D02*
G37*
G36*
X252960D02*
X250500D01*
Y547040D01*
X250783Y547077D01*
X251513Y547379D01*
X252140Y547860D01*
X252621Y548487D01*
X252923Y549217D01*
X252960Y549500D01*
D02*
G37*
G36*
X249500D02*
X247040D01*
X247077Y549217D01*
X247379Y548487D01*
X247860Y547860D01*
X248487Y547379D01*
X249217Y547077D01*
X249500Y547040D01*
Y549500D01*
D02*
G37*
G36*
X290000Y532641D02*
X289181Y532478D01*
X288486Y532014D01*
X288156Y531520D01*
X279278D01*
X279014Y531914D01*
X278319Y532378D01*
X277500Y532541D01*
X276681Y532378D01*
X275986Y531914D01*
X275722Y531520D01*
X227678D01*
X227414Y531914D01*
X226719Y532378D01*
X225900Y532541D01*
X225081Y532378D01*
X224386Y531914D01*
X223922Y531219D01*
X223759Y530400D01*
X223922Y529581D01*
X224386Y528886D01*
X225081Y528422D01*
X225900Y528259D01*
X226719Y528422D01*
X227414Y528886D01*
X227811Y529480D01*
X275589D01*
X275986Y528886D01*
X276681Y528422D01*
X277500Y528259D01*
X278319Y528422D01*
X279014Y528886D01*
X279411Y529480D01*
X288156D01*
X288486Y528986D01*
X289181Y528522D01*
X290000Y528359D01*
X290819Y528522D01*
X291514Y528986D01*
X291978Y529681D01*
X292141Y530500D01*
X291978Y531319D01*
X291514Y532014D01*
X290819Y532478D01*
X290000Y532641D01*
D02*
G37*
G36*
X419000Y528449D02*
Y526500D01*
X420950D01*
X420855Y526975D01*
X420302Y527802D01*
X419476Y528355D01*
X419000Y528449D01*
D02*
G37*
G36*
X418000D02*
X417524Y528355D01*
X416698Y527802D01*
X416145Y526975D01*
X416050Y526500D01*
X418000D01*
Y528449D01*
D02*
G37*
G36*
X420950Y525500D02*
X419000D01*
Y523551D01*
X419476Y523645D01*
X420302Y524198D01*
X420855Y525025D01*
X420950Y525500D01*
D02*
G37*
G36*
X418000D02*
X416050D01*
X416145Y525025D01*
X416698Y524198D01*
X417524Y523645D01*
X418000Y523551D01*
Y525500D01*
D02*
G37*
G36*
X460500Y510141D02*
X459681Y509978D01*
X458986Y509514D01*
X458791Y509222D01*
X422600D01*
X422600Y509222D01*
X422171Y509136D01*
X421807Y508893D01*
X411035Y498122D01*
X395276D01*
X395014Y498514D01*
X394319Y498978D01*
X393500Y499141D01*
X392681Y498978D01*
X391986Y498514D01*
X391522Y497819D01*
X391359Y497000D01*
X391522Y496181D01*
X391986Y495486D01*
X392681Y495022D01*
X393500Y494859D01*
X394319Y495022D01*
X395014Y495486D01*
X395276Y495878D01*
X400085D01*
X400292Y495378D01*
X398963Y494049D01*
X398500Y494141D01*
X397681Y493978D01*
X396986Y493514D01*
X396522Y492819D01*
X396359Y492000D01*
X396522Y491181D01*
X396986Y490486D01*
X397681Y490022D01*
X398500Y489859D01*
X399319Y490022D01*
X400014Y490486D01*
X400478Y491181D01*
X400641Y492000D01*
X400549Y492463D01*
X401965Y493878D01*
X412000D01*
X412000Y493878D01*
X412429Y493964D01*
X412793Y494207D01*
X423965Y505378D01*
X453035D01*
X455707Y502707D01*
X456071Y502464D01*
X456500Y502378D01*
X456500Y502378D01*
X458724D01*
X458986Y501986D01*
X459681Y501522D01*
X460500Y501359D01*
X461319Y501522D01*
X462014Y501986D01*
X462478Y502681D01*
X462641Y503500D01*
X462478Y504319D01*
X462014Y505014D01*
X461319Y505478D01*
X461234Y505495D01*
Y506005D01*
X461319Y506022D01*
X462014Y506486D01*
X462478Y507181D01*
X462641Y508000D01*
X462478Y508819D01*
X462014Y509514D01*
X461319Y509978D01*
X460500Y510141D01*
D02*
G37*
G36*
X500500Y502960D02*
Y500500D01*
X502960D01*
X502923Y500783D01*
X502621Y501513D01*
X502140Y502140D01*
X501513Y502621D01*
X500783Y502923D01*
X500500Y502960D01*
D02*
G37*
G36*
X499500D02*
X499217Y502923D01*
X498487Y502621D01*
X497860Y502140D01*
X497379Y501513D01*
X497077Y500783D01*
X497040Y500500D01*
X499500D01*
Y502960D01*
D02*
G37*
G36*
X350500D02*
Y500500D01*
X352960D01*
X352923Y500783D01*
X352621Y501513D01*
X352140Y502140D01*
X351513Y502621D01*
X350783Y502923D01*
X350500Y502960D01*
D02*
G37*
G36*
X349500D02*
X349217Y502923D01*
X348487Y502621D01*
X347860Y502140D01*
X347379Y501513D01*
X347077Y500783D01*
X347040Y500500D01*
X349500D01*
Y502960D01*
D02*
G37*
G36*
X250500D02*
Y500500D01*
X252960D01*
X252923Y500783D01*
X252621Y501513D01*
X252140Y502140D01*
X251513Y502621D01*
X250783Y502923D01*
X250500Y502960D01*
D02*
G37*
G36*
X249500D02*
X249217Y502923D01*
X248487Y502621D01*
X247860Y502140D01*
X247379Y501513D01*
X247077Y500783D01*
X247040Y500500D01*
X249500D01*
Y502960D01*
D02*
G37*
G36*
X510000Y502622D02*
X509321Y502533D01*
X508689Y502271D01*
X508146Y501854D01*
X507729Y501311D01*
X507467Y500679D01*
X507378Y500000D01*
X507467Y499321D01*
X507729Y498689D01*
X508146Y498146D01*
X508689Y497729D01*
X509321Y497467D01*
X510000Y497378D01*
X510679Y497467D01*
X511311Y497729D01*
X511854Y498146D01*
X512271Y498689D01*
X512533Y499321D01*
X512622Y500000D01*
X512533Y500679D01*
X512271Y501311D01*
X511854Y501854D01*
X511311Y502271D01*
X510679Y502533D01*
X510000Y502622D01*
D02*
G37*
G36*
X490000D02*
X489321Y502533D01*
X488689Y502271D01*
X488146Y501854D01*
X487729Y501311D01*
X487467Y500679D01*
X487378Y500000D01*
X487467Y499321D01*
X487729Y498689D01*
X488146Y498146D01*
X488689Y497729D01*
X489321Y497467D01*
X490000Y497378D01*
X490679Y497467D01*
X491311Y497729D01*
X491854Y498146D01*
X492271Y498689D01*
X492533Y499321D01*
X492622Y500000D01*
X492533Y500679D01*
X492271Y501311D01*
X491854Y501854D01*
X491311Y502271D01*
X490679Y502533D01*
X490000Y502622D01*
D02*
G37*
G36*
X360000D02*
X359321Y502533D01*
X358689Y502271D01*
X358146Y501854D01*
X357729Y501311D01*
X357467Y500679D01*
X357378Y500000D01*
X357467Y499321D01*
X357729Y498689D01*
X358146Y498146D01*
X358689Y497729D01*
X359321Y497467D01*
X360000Y497378D01*
X360679Y497467D01*
X361311Y497729D01*
X361854Y498146D01*
X362271Y498689D01*
X362533Y499321D01*
X362622Y500000D01*
X362533Y500679D01*
X362271Y501311D01*
X361854Y501854D01*
X361311Y502271D01*
X360679Y502533D01*
X360000Y502622D01*
D02*
G37*
G36*
X340000D02*
X339321Y502533D01*
X338689Y502271D01*
X338146Y501854D01*
X337729Y501311D01*
X337467Y500679D01*
X337378Y500000D01*
X337467Y499321D01*
X337729Y498689D01*
X338146Y498146D01*
X338689Y497729D01*
X339321Y497467D01*
X340000Y497378D01*
X340679Y497467D01*
X341311Y497729D01*
X341854Y498146D01*
X342271Y498689D01*
X342533Y499321D01*
X342622Y500000D01*
X342533Y500679D01*
X342271Y501311D01*
X341854Y501854D01*
X341311Y502271D01*
X340679Y502533D01*
X340000Y502622D01*
D02*
G37*
G36*
X260000D02*
X259321Y502533D01*
X258689Y502271D01*
X258146Y501854D01*
X257729Y501311D01*
X257467Y500679D01*
X257378Y500000D01*
X257467Y499321D01*
X257729Y498689D01*
X258146Y498146D01*
X258689Y497729D01*
X259321Y497467D01*
X260000Y497378D01*
X260679Y497467D01*
X261311Y497729D01*
X261854Y498146D01*
X262271Y498689D01*
X262533Y499321D01*
X262622Y500000D01*
X262533Y500679D01*
X262271Y501311D01*
X261854Y501854D01*
X261311Y502271D01*
X260679Y502533D01*
X260000Y502622D01*
D02*
G37*
G36*
X240000D02*
X239321Y502533D01*
X238689Y502271D01*
X238146Y501854D01*
X237729Y501311D01*
X237467Y500679D01*
X237378Y500000D01*
X237467Y499321D01*
X237729Y498689D01*
X238146Y498146D01*
X238689Y497729D01*
X239321Y497467D01*
X240000Y497378D01*
X240679Y497467D01*
X241311Y497729D01*
X241854Y498146D01*
X242271Y498689D01*
X242533Y499321D01*
X242622Y500000D01*
X242533Y500679D01*
X242271Y501311D01*
X241854Y501854D01*
X241311Y502271D01*
X240679Y502533D01*
X240000Y502622D01*
D02*
G37*
G36*
X502960Y499500D02*
X500500D01*
Y497040D01*
X500783Y497077D01*
X501513Y497379D01*
X502140Y497860D01*
X502621Y498487D01*
X502923Y499217D01*
X502960Y499500D01*
D02*
G37*
G36*
X499500D02*
X497040D01*
X497077Y499217D01*
X497379Y498487D01*
X497860Y497860D01*
X498487Y497379D01*
X499217Y497077D01*
X499500Y497040D01*
Y499500D01*
D02*
G37*
G36*
X352960D02*
X350500D01*
Y497040D01*
X350783Y497077D01*
X351513Y497379D01*
X352140Y497860D01*
X352621Y498487D01*
X352923Y499217D01*
X352960Y499500D01*
D02*
G37*
G36*
X349500D02*
X347040D01*
X347077Y499217D01*
X347379Y498487D01*
X347860Y497860D01*
X348487Y497379D01*
X349217Y497077D01*
X349500Y497040D01*
Y499500D01*
D02*
G37*
G36*
X252960D02*
X250500D01*
Y497040D01*
X250783Y497077D01*
X251513Y497379D01*
X252140Y497860D01*
X252621Y498487D01*
X252923Y499217D01*
X252960Y499500D01*
D02*
G37*
G36*
X249500D02*
X247040D01*
X247077Y499217D01*
X247379Y498487D01*
X247860Y497860D01*
X248487Y497379D01*
X249217Y497077D01*
X249500Y497040D01*
Y499500D01*
D02*
G37*
G36*
X500500Y452960D02*
Y450500D01*
X502960D01*
X502923Y450783D01*
X502621Y451513D01*
X502140Y452140D01*
X501513Y452621D01*
X500783Y452923D01*
X500500Y452960D01*
D02*
G37*
G36*
X499500D02*
X499217Y452923D01*
X498487Y452621D01*
X497860Y452140D01*
X497379Y451513D01*
X497077Y450783D01*
X497040Y450500D01*
X499500D01*
Y452960D01*
D02*
G37*
G36*
X350500D02*
Y450500D01*
X352960D01*
X352923Y450783D01*
X352621Y451513D01*
X352140Y452140D01*
X351513Y452621D01*
X350783Y452923D01*
X350500Y452960D01*
D02*
G37*
G36*
X349500D02*
X349217Y452923D01*
X348487Y452621D01*
X347860Y452140D01*
X347379Y451513D01*
X347077Y450783D01*
X347040Y450500D01*
X349500D01*
Y452960D01*
D02*
G37*
G36*
X510000Y452622D02*
X509321Y452533D01*
X508689Y452271D01*
X508146Y451854D01*
X507729Y451311D01*
X507467Y450679D01*
X507378Y450000D01*
X507467Y449321D01*
X507729Y448689D01*
X508146Y448146D01*
X508689Y447729D01*
X509321Y447467D01*
X510000Y447378D01*
X510679Y447467D01*
X511311Y447729D01*
X511854Y448146D01*
X512271Y448689D01*
X512533Y449321D01*
X512622Y450000D01*
X512533Y450679D01*
X512271Y451311D01*
X511854Y451854D01*
X511311Y452271D01*
X510679Y452533D01*
X510000Y452622D01*
D02*
G37*
G36*
X490000D02*
X489321Y452533D01*
X488689Y452271D01*
X488146Y451854D01*
X487729Y451311D01*
X487467Y450679D01*
X487378Y450000D01*
X487467Y449321D01*
X487729Y448689D01*
X488146Y448146D01*
X488689Y447729D01*
X489321Y447467D01*
X490000Y447378D01*
X490679Y447467D01*
X491311Y447729D01*
X491854Y448146D01*
X492271Y448689D01*
X492533Y449321D01*
X492622Y450000D01*
X492533Y450679D01*
X492271Y451311D01*
X491854Y451854D01*
X491311Y452271D01*
X490679Y452533D01*
X490000Y452622D01*
D02*
G37*
G36*
X360000D02*
X359321Y452533D01*
X358689Y452271D01*
X358146Y451854D01*
X357729Y451311D01*
X357467Y450679D01*
X357378Y450000D01*
X357467Y449321D01*
X357729Y448689D01*
X358146Y448146D01*
X358689Y447729D01*
X359321Y447467D01*
X360000Y447378D01*
X360679Y447467D01*
X361311Y447729D01*
X361854Y448146D01*
X362271Y448689D01*
X362533Y449321D01*
X362622Y450000D01*
X362533Y450679D01*
X362271Y451311D01*
X361854Y451854D01*
X361311Y452271D01*
X360679Y452533D01*
X360000Y452622D01*
D02*
G37*
G36*
X340000D02*
X339321Y452533D01*
X338689Y452271D01*
X338146Y451854D01*
X337729Y451311D01*
X337467Y450679D01*
X337378Y450000D01*
X337467Y449321D01*
X337729Y448689D01*
X338146Y448146D01*
X338689Y447729D01*
X339321Y447467D01*
X340000Y447378D01*
X340679Y447467D01*
X341311Y447729D01*
X341854Y448146D01*
X342271Y448689D01*
X342533Y449321D01*
X342622Y450000D01*
X342533Y450679D01*
X342271Y451311D01*
X341854Y451854D01*
X341311Y452271D01*
X340679Y452533D01*
X340000Y452622D01*
D02*
G37*
G36*
X502960Y449500D02*
X500500D01*
Y447040D01*
X500783Y447077D01*
X501513Y447379D01*
X502140Y447860D01*
X502621Y448487D01*
X502923Y449217D01*
X502960Y449500D01*
D02*
G37*
G36*
X499500D02*
X497040D01*
X497077Y449217D01*
X497379Y448487D01*
X497860Y447860D01*
X498487Y447379D01*
X499217Y447077D01*
X499500Y447040D01*
Y449500D01*
D02*
G37*
G36*
X352960D02*
X350500D01*
Y447040D01*
X350783Y447077D01*
X351513Y447379D01*
X352140Y447860D01*
X352621Y448487D01*
X352923Y449217D01*
X352960Y449500D01*
D02*
G37*
G36*
X349500D02*
X347040D01*
X347077Y449217D01*
X347379Y448487D01*
X347860Y447860D01*
X348487Y447379D01*
X349217Y447077D01*
X349500Y447040D01*
Y449500D01*
D02*
G37*
G36*
X500500Y402960D02*
Y400500D01*
X502960D01*
X502923Y400783D01*
X502621Y401513D01*
X502140Y402140D01*
X501513Y402621D01*
X500783Y402923D01*
X500500Y402960D01*
D02*
G37*
G36*
X499500D02*
X499217Y402923D01*
X498487Y402621D01*
X497860Y402140D01*
X497379Y401513D01*
X497077Y400783D01*
X497040Y400500D01*
X499500D01*
Y402960D01*
D02*
G37*
G36*
X350500D02*
Y400500D01*
X352960D01*
X352923Y400783D01*
X352621Y401513D01*
X352140Y402140D01*
X351513Y402621D01*
X350783Y402923D01*
X350500Y402960D01*
D02*
G37*
G36*
X349500D02*
X349217Y402923D01*
X348487Y402621D01*
X347860Y402140D01*
X347379Y401513D01*
X347077Y400783D01*
X347040Y400500D01*
X349500D01*
Y402960D01*
D02*
G37*
G36*
X250500D02*
Y400500D01*
X252960D01*
X252923Y400783D01*
X252621Y401513D01*
X252140Y402140D01*
X251513Y402621D01*
X250783Y402923D01*
X250500Y402960D01*
D02*
G37*
G36*
X249500D02*
X249217Y402923D01*
X248487Y402621D01*
X247860Y402140D01*
X247379Y401513D01*
X247077Y400783D01*
X247040Y400500D01*
X249500D01*
Y402960D01*
D02*
G37*
G36*
X510000Y402622D02*
X509321Y402533D01*
X508689Y402271D01*
X508146Y401854D01*
X507729Y401311D01*
X507467Y400679D01*
X507378Y400000D01*
X507467Y399321D01*
X507729Y398689D01*
X508146Y398146D01*
X508689Y397729D01*
X509321Y397467D01*
X510000Y397378D01*
X510679Y397467D01*
X511311Y397729D01*
X511854Y398146D01*
X512271Y398689D01*
X512533Y399321D01*
X512622Y400000D01*
X512533Y400679D01*
X512271Y401311D01*
X511854Y401854D01*
X511311Y402271D01*
X510679Y402533D01*
X510000Y402622D01*
D02*
G37*
G36*
X490000D02*
X489321Y402533D01*
X488689Y402271D01*
X488146Y401854D01*
X487729Y401311D01*
X487467Y400679D01*
X487378Y400000D01*
X487467Y399321D01*
X487729Y398689D01*
X488146Y398146D01*
X488689Y397729D01*
X489321Y397467D01*
X490000Y397378D01*
X490679Y397467D01*
X491311Y397729D01*
X491854Y398146D01*
X492271Y398689D01*
X492533Y399321D01*
X492622Y400000D01*
X492533Y400679D01*
X492271Y401311D01*
X491854Y401854D01*
X491311Y402271D01*
X490679Y402533D01*
X490000Y402622D01*
D02*
G37*
G36*
X360000D02*
X359321Y402533D01*
X358689Y402271D01*
X358146Y401854D01*
X357729Y401311D01*
X357467Y400679D01*
X357378Y400000D01*
X357467Y399321D01*
X357729Y398689D01*
X358146Y398146D01*
X358689Y397729D01*
X359321Y397467D01*
X360000Y397378D01*
X360679Y397467D01*
X361311Y397729D01*
X361854Y398146D01*
X362271Y398689D01*
X362533Y399321D01*
X362622Y400000D01*
X362533Y400679D01*
X362271Y401311D01*
X361854Y401854D01*
X361311Y402271D01*
X360679Y402533D01*
X360000Y402622D01*
D02*
G37*
G36*
X340000D02*
X339321Y402533D01*
X338689Y402271D01*
X338146Y401854D01*
X337729Y401311D01*
X337467Y400679D01*
X337378Y400000D01*
X337467Y399321D01*
X337729Y398689D01*
X338146Y398146D01*
X338689Y397729D01*
X339321Y397467D01*
X340000Y397378D01*
X340679Y397467D01*
X341311Y397729D01*
X341854Y398146D01*
X342271Y398689D01*
X342533Y399321D01*
X342622Y400000D01*
X342533Y400679D01*
X342271Y401311D01*
X341854Y401854D01*
X341311Y402271D01*
X340679Y402533D01*
X340000Y402622D01*
D02*
G37*
G36*
X260000D02*
X259321Y402533D01*
X258689Y402271D01*
X258146Y401854D01*
X257729Y401311D01*
X257467Y400679D01*
X257378Y400000D01*
X257467Y399321D01*
X257729Y398689D01*
X258146Y398146D01*
X258689Y397729D01*
X259321Y397467D01*
X260000Y397378D01*
X260679Y397467D01*
X261311Y397729D01*
X261854Y398146D01*
X262271Y398689D01*
X262533Y399321D01*
X262622Y400000D01*
X262533Y400679D01*
X262271Y401311D01*
X261854Y401854D01*
X261311Y402271D01*
X260679Y402533D01*
X260000Y402622D01*
D02*
G37*
G36*
X240000D02*
X239321Y402533D01*
X238689Y402271D01*
X238146Y401854D01*
X237729Y401311D01*
X237467Y400679D01*
X237378Y400000D01*
X237467Y399321D01*
X237729Y398689D01*
X238146Y398146D01*
X238689Y397729D01*
X239321Y397467D01*
X240000Y397378D01*
X240679Y397467D01*
X241311Y397729D01*
X241854Y398146D01*
X242271Y398689D01*
X242533Y399321D01*
X242622Y400000D01*
X242533Y400679D01*
X242271Y401311D01*
X241854Y401854D01*
X241311Y402271D01*
X240679Y402533D01*
X240000Y402622D01*
D02*
G37*
G36*
X502960Y399500D02*
X500500D01*
Y397040D01*
X500783Y397077D01*
X501513Y397379D01*
X502140Y397860D01*
X502621Y398487D01*
X502923Y399217D01*
X502960Y399500D01*
D02*
G37*
G36*
X499500D02*
X497040D01*
X497077Y399217D01*
X497379Y398487D01*
X497860Y397860D01*
X498487Y397379D01*
X499217Y397077D01*
X499500Y397040D01*
Y399500D01*
D02*
G37*
G36*
X352960D02*
X350500D01*
Y397040D01*
X350783Y397077D01*
X351513Y397379D01*
X352140Y397860D01*
X352621Y398487D01*
X352923Y399217D01*
X352960Y399500D01*
D02*
G37*
G36*
X349500D02*
X347040D01*
X347077Y399217D01*
X347379Y398487D01*
X347860Y397860D01*
X348487Y397379D01*
X349217Y397077D01*
X349500Y397040D01*
Y399500D01*
D02*
G37*
G36*
X252960D02*
X250500D01*
Y397040D01*
X250783Y397077D01*
X251513Y397379D01*
X252140Y397860D01*
X252621Y398487D01*
X252923Y399217D01*
X252960Y399500D01*
D02*
G37*
G36*
X249500D02*
X247040D01*
X247077Y399217D01*
X247379Y398487D01*
X247860Y397860D01*
X248487Y397379D01*
X249217Y397077D01*
X249500Y397040D01*
Y399500D01*
D02*
G37*
G36*
X532500Y324985D02*
Y318500D01*
X538985D01*
X538899Y319372D01*
X538498Y320692D01*
X537848Y321908D01*
X536974Y322974D01*
X535908Y323849D01*
X534692Y324499D01*
X533372Y324899D01*
X532500Y324985D01*
D02*
G37*
G36*
X531500D02*
X530628Y324899D01*
X529308Y324499D01*
X528092Y323849D01*
X527026Y322974D01*
X526152Y321908D01*
X525502Y320692D01*
X525101Y319372D01*
X525015Y318500D01*
X531500D01*
Y324985D01*
D02*
G37*
G36*
X400500D02*
Y318500D01*
X406985D01*
X406899Y319372D01*
X406498Y320692D01*
X405849Y321908D01*
X404974Y322974D01*
X403908Y323849D01*
X402692Y324499D01*
X401372Y324899D01*
X400500Y324985D01*
D02*
G37*
G36*
X399500D02*
X398628Y324899D01*
X397308Y324499D01*
X396092Y323849D01*
X395026Y322974D01*
X394151Y321908D01*
X393501Y320692D01*
X393101Y319372D01*
X393015Y318500D01*
X399500D01*
Y324985D01*
D02*
G37*
G36*
X218500D02*
Y318500D01*
X224985D01*
X224899Y319372D01*
X224499Y320692D01*
X223849Y321908D01*
X222974Y322974D01*
X221908Y323849D01*
X220692Y324499D01*
X219372Y324899D01*
X218500Y324985D01*
D02*
G37*
G36*
X217500D02*
X216628Y324899D01*
X215308Y324499D01*
X214092Y323849D01*
X213026Y322974D01*
X212152Y321908D01*
X211502Y320692D01*
X211101Y319372D01*
X211015Y318500D01*
X217500D01*
Y324985D01*
D02*
G37*
G36*
X538985Y317500D02*
X532500D01*
Y311015D01*
X533372Y311101D01*
X534692Y311502D01*
X535908Y312152D01*
X536974Y313026D01*
X537848Y314092D01*
X538498Y315308D01*
X538899Y316628D01*
X538985Y317500D01*
D02*
G37*
G36*
X531500D02*
X525015D01*
X525101Y316628D01*
X525502Y315308D01*
X526152Y314092D01*
X527026Y313026D01*
X528092Y312152D01*
X529308Y311502D01*
X530628Y311101D01*
X531500Y311015D01*
Y317500D01*
D02*
G37*
G36*
X406985D02*
X400500D01*
Y311015D01*
X401372Y311101D01*
X402692Y311502D01*
X403908Y312152D01*
X404974Y313026D01*
X405849Y314092D01*
X406498Y315308D01*
X406899Y316628D01*
X406985Y317500D01*
D02*
G37*
G36*
X399500D02*
X393015D01*
X393101Y316628D01*
X393501Y315308D01*
X394151Y314092D01*
X395026Y313026D01*
X396092Y312152D01*
X397308Y311502D01*
X398628Y311101D01*
X399500Y311015D01*
Y317500D01*
D02*
G37*
G36*
X224985D02*
X218500D01*
Y311015D01*
X219372Y311101D01*
X220692Y311502D01*
X221908Y312152D01*
X222974Y313026D01*
X223849Y314092D01*
X224499Y315308D01*
X224899Y316628D01*
X224985Y317500D01*
D02*
G37*
G36*
X217500D02*
X211015D01*
X211101Y316628D01*
X211502Y315308D01*
X212152Y314092D01*
X213026Y313026D01*
X214092Y312152D01*
X215308Y311502D01*
X216628Y311101D01*
X217500Y311015D01*
Y317500D01*
D02*
G37*
%LPD*%
G36*
X272373Y620918D02*
X273249Y620556D01*
X273271Y620553D01*
Y592811D01*
X273341Y592460D01*
X273540Y592162D01*
X279499Y586203D01*
X279359Y585500D01*
X279522Y584681D01*
X279534Y584663D01*
X279145Y584344D01*
X271207Y592283D01*
Y621290D01*
X271707Y621430D01*
X272373Y620918D01*
D02*
G37*
D16*
X301000Y550500D02*
X326000D01*
X285000Y550000D02*
X292500D01*
X226000Y530500D02*
X290000D01*
D17*
X418500Y538500D02*
Y545900D01*
X422837Y531900D02*
X434337D01*
X418500Y545900D02*
X419100Y546500D01*
X415500Y546400D02*
X416900Y545000D01*
Y537837D02*
Y545000D01*
Y537837D02*
X422837Y531900D01*
X418500Y538500D02*
X423500Y533500D01*
X445377Y519446D02*
X448946D01*
X423500Y533500D02*
X435000D01*
X456500Y503500D02*
X460500D01*
X453500Y506500D02*
X456500Y503500D01*
X423500Y506500D02*
X453500D01*
X422600Y508100D02*
X460400D01*
X411500Y497000D02*
X422600Y508100D01*
X412000Y495000D02*
X423500Y506500D01*
X393500Y497000D02*
X411500D01*
X401500Y495000D02*
X412000D01*
X398500Y492000D02*
X401500Y495000D01*
X443854Y520969D02*
X445377Y519446D01*
X435000Y533500D02*
X446454Y522046D01*
X434337Y531900D02*
X443854Y522383D01*
Y520969D02*
Y522383D01*
X360000Y581000D02*
Y590000D01*
Y581000D02*
X361000Y580000D01*
D18*
X481400Y521100D02*
Y566716D01*
X478600Y522484D02*
Y570277D01*
X478400Y522284D02*
X478600Y522484D01*
X476000Y523561D02*
Y569200D01*
X475800Y523361D02*
X476000Y523561D01*
X478400Y519716D02*
Y522284D01*
X475800Y459684D02*
Y523361D01*
X478400Y458100D02*
X478500Y458000D01*
X475400Y459284D02*
X475800Y459684D01*
X478400Y458100D02*
Y519716D01*
X481400Y566716D02*
X481600Y566516D01*
X475400Y456716D02*
Y459284D01*
Y456716D02*
X476000Y456116D01*
Y411500D02*
Y456116D01*
X481600Y569484D02*
Y570954D01*
X481400Y569284D02*
X481600Y569484D01*
X481400Y566716D02*
Y569284D01*
X460000Y585200D02*
X476000Y569200D01*
X462154Y590400D02*
X481600Y570954D01*
X461077Y587800D02*
X478600Y570277D01*
X478400Y519716D02*
X478600Y519516D01*
X470850Y406350D02*
X476000Y411500D01*
X389000Y607833D02*
X389500Y607333D01*
X405000Y607833D02*
X405500Y607333D01*
X430000Y601000D02*
Y606333D01*
X413500Y601000D02*
Y606333D01*
X397500Y601000D02*
Y606333D01*
X430000Y601000D02*
X440600Y590400D01*
X413500Y601000D02*
X426700Y587800D01*
X397500Y601000D02*
X413300Y585200D01*
X460000D01*
X440600Y590400D02*
X462154D01*
X426700Y587800D02*
X461077D01*
X361000Y572000D02*
X409000D01*
X354553Y578447D02*
X361000Y572000D01*
X354553Y578447D02*
Y594553D01*
X350500Y598605D02*
X354553Y594553D01*
X350500Y598605D02*
Y600500D01*
X407000Y532000D02*
X413000Y526000D01*
X407000Y532000D02*
Y551500D01*
X418250Y562750D01*
X418500Y563000D01*
X418250Y562750D02*
X418500Y562500D01*
X409000Y572000D02*
X418250Y562750D01*
D19*
X270289Y591903D02*
Y627963D01*
Y591903D02*
X280092Y582100D01*
X284900Y586203D02*
X287697Y589000D01*
X284900Y584092D02*
Y586203D01*
X282908Y582100D02*
X284900Y584092D01*
X280092Y582100D02*
X282908D01*
X274189Y592811D02*
X281500Y585500D01*
X287697Y589000D02*
X290500D01*
X274189Y592811D02*
Y624063D01*
X274000Y631674D02*
Y632500D01*
X270289Y627963D02*
X274000Y631674D01*
X278163Y627963D02*
X282000Y631800D01*
X278163Y618837D02*
Y627963D01*
X282000Y631800D02*
Y632500D01*
X278163Y618837D02*
X285000Y612000D01*
X444500Y549000D02*
X456000Y560500D01*
X470000D01*
X444500Y545400D02*
X458000Y558900D01*
X444500Y541800D02*
X460000Y557300D01*
X470000D01*
X458000Y558900D02*
X472000D01*
X470000Y557300D02*
X472000Y555300D01*
X470000Y560500D02*
X472000Y562500D01*
D23*
X370000Y600000D02*
D03*
Y590000D02*
D03*
X360000Y600000D02*
D03*
Y590000D02*
D03*
X350000Y600000D02*
D03*
X456000Y632000D02*
D03*
X466000D02*
D03*
X476000D02*
D03*
X486000D02*
D03*
D24*
X350000Y590000D02*
D03*
X446000Y632000D02*
D03*
D26*
X250000Y550000D02*
D03*
X240000D02*
D03*
X260000D02*
D03*
X250000Y500000D02*
D03*
X240000D02*
D03*
X260000D02*
D03*
X350000Y400000D02*
D03*
X340000D02*
D03*
X360000D02*
D03*
X350000Y450000D02*
D03*
X340000D02*
D03*
X360000D02*
D03*
X500000Y550000D02*
D03*
X490000D02*
D03*
X510000D02*
D03*
X350000Y500000D02*
D03*
X340000D02*
D03*
X360000D02*
D03*
X500000D02*
D03*
X490000D02*
D03*
X510000D02*
D03*
X350000Y550000D02*
D03*
X340000D02*
D03*
X360000D02*
D03*
X500000Y450000D02*
D03*
X490000D02*
D03*
X510000D02*
D03*
X250000Y400000D02*
D03*
X240000D02*
D03*
X260000D02*
D03*
X500000D02*
D03*
X490000D02*
D03*
X510000D02*
D03*
D27*
X326000Y550500D02*
D03*
X301000D02*
D03*
X481500Y521000D02*
D03*
X478500Y458000D02*
D03*
X470850Y406350D02*
D03*
X418500Y562500D02*
D03*
X413500D02*
D03*
X419100Y546500D02*
D03*
X415500D02*
D03*
X413000Y526000D02*
D03*
X418500D02*
D03*
X460500Y503500D02*
D03*
X393500Y497000D02*
D03*
X460500Y508000D02*
D03*
X413500Y606333D02*
D03*
X397500D02*
D03*
X430000D02*
D03*
X389500D02*
D03*
X225900Y530400D02*
D03*
X277500D02*
D03*
X281500Y585500D02*
D03*
X290500Y589000D02*
D03*
X285000Y612000D02*
D03*
X261500Y603000D02*
D03*
X398500Y492000D02*
D03*
X449000Y519500D02*
D03*
X446454Y522046D02*
D03*
X405500Y606333D02*
D03*
X421833D02*
D03*
X292500Y550000D02*
D03*
X285000D02*
D03*
X290000Y530500D02*
D03*
X444500Y545400D02*
D03*
Y541800D02*
D03*
Y549000D02*
D03*
X472000Y558900D02*
D03*
Y555300D02*
D03*
Y562500D02*
D03*
X360500Y580000D02*
D03*
X520850Y571850D02*
D03*
D28*
X400000Y318000D02*
D03*
X532000D02*
D03*
Y632000D02*
D03*
X400000D02*
D03*
X218000D02*
D03*
X274189Y624063D02*
D03*
X266315D02*
D03*
X305685D02*
D03*
Y631937D02*
D03*
X297811Y624063D02*
D03*
Y631937D02*
D03*
X289937Y624063D02*
D03*
Y631937D02*
D03*
X282063Y624063D02*
D03*
X274189Y631937D02*
D03*
X282063D02*
D03*
X266315D02*
D03*
X218000Y318000D02*
D03*
M02*
