M48
;Layer_Color=9474304
;FILE_FORMAT=2:5
INCH,LZ
;TYPE=PLATED
T1F00S00C0.01500
T2F00S00C0.03000
T3F00S00C0.03200
T4F00S00C0.03543
T5F00S00C0.12000
%
T01
X047085Y040635
X04785Y0458
X04815Y0521
X0472Y05553
Y05589
Y05625
X052085Y057185
X04445Y0549
Y05454
Y05418
X0446454Y0522046
X0449Y05195
X04605Y0508
Y05035
X04185Y0526
X0413
X04155Y05465
X04191
X04185Y05625
X04135
Y0606333
X04055
X03975
X03895
X0421833
X043
X03605Y058
X0326Y05505
X03935Y0497
X03985Y0492
X029Y05305
X02775Y05304
X0285Y055
X02925
X0301Y05505
X02905Y0589
X02815Y05855
X0285Y0612
X02615Y0603
X02259Y05304
T02
X024Y04
X025
X026
X034
X035
X036
Y045
X035
X034
X049
X05
X051
Y04
X05
X049
Y05
X05
X051
Y055
X05
X049
X036
X035
X034
Y05
X035
X036
X026
X025
X024
Y055
X025
X026
T03
X0266315Y0624063
X0274189
X0282063
X0289937
X0297811
X0305685
Y0631937
X0297811
X0289937
X0282063
X0274189
X0266315
T04
X035Y059
X036
X037
Y06
X036
X035
X0446Y0632
X0456
X0466
X0476
X0486
T05
X0218Y0318
X04
X0532
X0218Y0632
X04
X0532
M30
